<svg xmlns="http://www.w3.org/2000/svg" version="1.1" xmlns:xlink="http://www.w3.org/1999/xlink" xmlns:svgjs="http://svgjs.dev/svgjs" width="2000" height="1500" viewBox="0 0 2000 1500"><rect width="2000" height="1500" fill="#000000"></rect><g transform="matrix(0.22583559168925021,0,0,0.22583559168925021,772.6608282304953,248.38709677419342)"><svg viewBox="0 0 112 248" data-background-color="#ffffff" preserveAspectRatio="xMidYMid meet" height="4428" width="2000" xmlns="http://www.w3.org/2000/svg" xmlns:xlink="http://www.w3.org/1999/xlink"><g id="tight-bounds" transform="matrix(1,0,0,1,0.3728397453405705,0.4000000000000057)"><svg viewBox="0 0 111.25432050931889 247.2" height="247.2" width="111.25432050931889"><g><svg></svg></g><g><svg viewBox="0 0 111.25432050931889 247.2" height="247.2" width="111.25432050931889"><g transform="matrix(1,0,0,1,0,47.215199999999996)"><svg viewBox="0 0 111.25432050931889 152.7696" height="152.7696" width="111.25432050931889"><g><svg viewBox="0 0 111.25432050931889 152.7696" height="152.7696" width="111.25432050931889"><g><svg viewBox="0 0 244.43135999999998 335.6425253752566" height="152.7696" width="111.25432050931889"><g transform="matrix(1,0,0,1,0,110.08737654601447)"><svg viewBox="0 0 244.43135999999998 225.5551488292421" height="225.5551488292421" width="244.43135999999998"><g id="textblocktransform"><svg viewBox="0 0 244.43135999999998 225.5551488292421" height="225.5551488292421" width="244.43135999999998" id="textblock"><g><svg viewBox="0 0 244.43135999999998 121.65366944464095" height="121.65366944464095" width="244.43135999999998"><g transform="matrix(1,0,0,1,0,0)"><svg width="244.43135999999998" viewBox="0.49 -33.54 69.01 34.35" height="121.65366944464095" data-palette-color="#636365"><path d="M46.04-33.54L46.04-31.4 42.99-30.81 35.35 0.81 31.69 0.81 23.34-26.9 15.16 0.81 11.55 0.81 3.39-30.81 0.49-31.4 0.49-33.54 11.94-33.54 11.94-31.4 8.96-31.1Q8.4-31.03 8.4-30.37L8.4-30.37Q8.4-30.3 8.45-30.1L8.45-30.1 14.4-7.54 22.24-33.54 26.1-33.54 34.16-6.74 39.7-30.1Q39.72-30.15 39.72-30.27L39.72-30.27Q39.72-31.03 38.99-31.1L38.99-31.1 35.84-31.4 35.84-33.54 46.04-33.54ZM69.5-33.54L69.5-31.4 66.6-31.2Q66.09-31.18 65.82-30.82 65.55-30.47 65.55-30.1L65.55-30.1 65.55-12.65Q65.55-8.5 64.49-5.48 63.43-2.47 61.02-0.83 58.62 0.81 54.56 0.81L54.56 0.81Q52.95 0.81 51.45 0.48 49.95 0.15 48.95-0.21 47.95-0.56 47.8-0.61L47.8-0.61 47.8-9.16 50.8-9.16 51.9-3.05Q52.05-2.29 52.74-2.03 53.44-1.76 54.2-1.76L54.2-1.76Q57.61-1.76 59.06-4.41 60.5-7.06 60.5-12.3L60.5-12.3 60.5-30.1Q60.5-30.47 60.24-30.82 59.98-31.18 59.45-31.2L59.45-31.2 56.3-31.4 56.3-33.54 69.5-33.54Z" opacity="1" transform="matrix(1,0,0,1,0,0)" fill="#ffffff" class="wordmark-text-0" data-fill-palette-color="primary" id="text-0"></path></svg></g></svg></g><g transform="matrix(1,0,0,1,0,150.373181112454)"><svg viewBox="0 0 244.43135999999998 75.18196771678811" height="75.18196771678811" width="244.43135999999998"><g transform="matrix(1,0,0,1,0,0)"><svg width="244.43135999999998" viewBox="2.1499999999999995 -32.35 107.28999999999999 33" height="75.18196771678811" data-palette-color="#89939e"><path d="M5.6 0.5L5.6 0.5Q5 0.5 4.38 0.3 3.75 0.1 3.35-0.65 2.95-1.4 2.95-2.95L2.95-2.95Q2.95-4.2 3.18-6.13 3.4-8.05 3.75-10.25L3.75-10.25Q4.1-12.5 4.33-15 4.55-17.5 4.55-20.05L4.55-20.05Q4.55-21.05 4.5-22.2 4.45-23.35 4.3-24.45L4.3-24.45Q3.95-24.25 3.63-24.13 3.3-24 3-24L3-24Q2.15-24 2.15-25.65L2.15-25.65Q2.15-27.15 2.83-28.18 3.5-29.2 5.3-30.15L5.3-30.15Q7.05-31.1 9.43-31.73 11.8-32.35 14.25-32.35L14.25-32.35Q19.1-32.35 22.03-29.8 24.95-27.25 24.95-23L24.95-23Q24.95-20.4 23.9-18.2 22.85-16 21.13-14.38 19.4-12.75 17.38-11.88 15.35-11 13.4-11L13.4-11Q11.55-11 10.9-11.83 10.25-12.65 10.25-14.2L10.25-14.2Q10.25-14.95 10.43-15.58 10.6-16.2 11.2-16.2L11.2-16.2Q11.35-16.2 11.65-16.15 11.95-16.1 12.25-16L12.25-16Q12.55-15.95 13.1-15.85 13.65-15.75 14.35-15.75L14.35-15.75Q17.1-15.75 18.82-17.3 20.55-18.85 20.55-21.3L20.55-21.3Q20.55-23.85 18.65-25.3 16.75-26.75 13.75-26.75L13.75-26.75Q12.65-26.75 11.5-26.58 10.35-26.4 9.2-26.1L9.2-26.1Q9.05-22.8 8.5-18.6L8.5-18.6Q8.2-16.1 7.98-13.68 7.75-11.25 7.75-9.25L7.75-9.25Q7.75-7.5 8.08-6.18 8.4-4.85 9.4-3.9L9.4-3.9Q10.1-3.2 10.1-2.4L10.1-2.4Q10.1-1.3 8.85-0.4 7.6 0.5 5.6 0.5ZM44.64 0.5L44.64 0.5Q44.04 0.5 43.42 0.3 42.79 0.1 42.39-0.65 41.99-1.4 41.99-2.95L41.99-2.95Q41.99-3.95 42.17-5.53 42.34-7.1 42.54-8.6L42.54-8.6Q42.94-11.1 43.27-14.1 43.59-17.1 43.59-20.05L43.59-20.05Q43.59-21.1 43.54-22.25 43.49-23.4 43.34-24.45L43.34-24.45Q43.04-24.3 42.67-24.18 42.29-24.05 42.04-24.05L42.04-24.05Q41.54-24.05 41.37-24.58 41.19-25.1 41.19-25.8L41.19-25.8Q41.19-27.4 41.97-28.38 42.74-29.35 44.29-30.15L44.29-30.15Q46.34-31.3 48.67-31.83 50.99-32.35 53.09-32.35L53.09-32.35Q56.19-32.35 58.59-31.25 60.99-30.15 62.34-28.15 63.69-26.15 63.69-23.35L63.69-23.35Q63.69-20.45 62.32-18.2 60.94-15.95 58.82-14.53 56.69-13.1 54.49-12.65L54.49-12.65Q55.29-11.4 56.22-10.15 57.14-8.9 58.09-7.9L58.09-7.9Q60.94-4.95 63.89-4.95L63.89-4.95Q64.69-4.95 65.29-5.05L65.29-5.05Q65.59-5.1 65.82-4.83 66.04-4.55 66.04-3.75L66.04-3.75Q66.04-2.8 65.64-1.83 65.24-0.85 64.29-0.2 63.34 0.45 61.69 0.45L61.69 0.45Q59.74 0.45 57.97-0.85 56.19-2.15 54.69-4.17 53.19-6.2 52.02-8.45 50.84-10.7 50.04-12.6L50.04-12.6Q49.84-13.15 49.69-13.68 49.54-14.2 49.54-14.7L49.54-14.7Q49.54-15.55 50.09-16.1L50.09-16.1Q50.49-16.5 51.22-16.65 51.94-16.8 53.34-16.8L53.34-16.8Q55.99-16.8 57.64-18.25 59.29-19.7 59.29-22L59.29-22Q59.29-24.5 57.42-25.65 55.54-26.8 52.84-26.8L52.84-26.8Q50.64-26.8 48.24-26.1L48.24-26.1Q48.09-22.85 47.54-18.65L47.54-18.65Q47.24-16.15 47.02-13.7 46.79-11.25 46.79-9.25L46.79-9.25Q46.79-7.5 47.12-6.18 47.44-4.85 48.44-3.9L48.44-3.9Q49.14-3.2 49.14-2.4L49.14-2.4Q49.14-1.3 47.89-0.4 46.64 0.5 44.64 0.5ZM93.39 0.65L93.39 0.65Q88.24 0.65 85.16-2.38 82.09-5.4 82.09-11.3L82.09-11.3Q82.09-13.95 82.81-16.8 83.54-19.65 85.24-22.45L85.24-22.45Q84.29-21.6 83.44-21.6L83.44-21.6Q81.99-21.6 81.99-23.9L81.99-23.9Q81.99-25.55 82.69-26.55 83.39-27.55 84.04-28.15L84.04-28.15Q85.14-29.1 86.84-30.08 88.54-31.05 90.84-31.7 93.14-32.35 95.99-32.35L95.99-32.35Q102.69-32.35 106.06-28.58 109.44-24.8 109.44-18.1L109.44-18.1Q109.44-14.15 108.29-10.75 107.14-7.35 105.01-4.8 102.89-2.25 99.94-0.8 96.99 0.65 93.39 0.65ZM95.14-4.95L95.14-4.95Q97.64-4.95 100.06-6.1 102.49-7.25 104.06-9.78 105.64-12.3 105.64-16.35L105.64-16.35Q105.64-20.15 104.19-22.43 102.74-24.7 100.51-25.73 98.29-26.75 95.84-26.75L95.84-26.75Q93.99-26.75 92.51-26.28 91.04-25.8 89.89-25.25L89.89-25.25Q88.59-23.25 87.44-20.38 86.29-17.5 86.29-14.3L86.29-14.3Q86.29-11.1 87.54-9.03 88.79-6.95 90.81-5.95 92.84-4.95 95.14-4.95Z" opacity="1" transform="matrix(1,0,0,1,0,0)" fill="#ffffff" class="slogan-text-1" data-fill-palette-color="secondary" id="text-1"></path></svg></g></svg></g></svg></g></svg></g><g transform="matrix(1,0,0,1,46.68638976,0)"><svg viewBox="0 0 151.05858048 81.36786487820142" height="81.36786487820142" width="151.05858048"><g><svg xmlns="http://www.w3.org/2000/svg" xmlns:xlink="http://www.w3.org/1999/xlink" version="1.1" x="0" y="0" viewBox="100.5 107.8 649.4 349.8" style="enable-background:new 0 -142.5 850.4 850.4;" xml:space="preserve" height="81.36786487820142" width="151.05858048" class="icon-icon-0" data-fill-palette-color="accent" id="icon-0"><polygon points="526.1,152 526.1,201.9 691.5,282.7 526.1,363.6 526.1,413.5 749.9,303.3 749.9,261.5 " fill="#ffffff" data-fill-palette-color="accent"></polygon><polygon points="100.5,303.3 324.3,413.5 324.3,363.6 158.9,282.7 324.3,201.9 324.3,152 100.5,261.5 " fill="#ffffff" data-fill-palette-color="accent"></polygon><polygon points="345.5,457.6 394.8,457.6 504.9,107.8 456,107.8 " fill="#ffffff" data-fill-palette-color="accent"></polygon></svg></g></svg></g><g></g></svg></g></svg></g></svg></g><path d="M0 41.215L0 1 111.254 1 111.254 41.215 106.261 41.215 106.261 5.993 4.993 5.993 4.993 41.215 0 41.215M0 205.985L0 246.2 111.254 246.2 111.254 205.985 106.261 205.985 106.261 241.207 4.993 241.207 4.993 205.985 0 205.985" fill="#ffffff" stroke="transparent" data-fill-palette-color="tertiary"></path></svg></g><defs></defs></svg><rect width="111.25432050931889" height="247.2" fill="none" stroke="none" visibility="hidden"></rect></g></svg></g></svg>